<?xml version="1.0" encoding="utf-8"?>
<!-- Generator: Adobe Illustrator 24.2.1, SVG Export Plug-In . SVG Version: 6.00 Build 0)  -->
<svg version="1.1" id="Layer_1" xmlns="http://www.w3.org/2000/svg" xmlns:xlink="http://www.w3.org/1999/xlink" x="0px" y="0px"
	 viewBox="0 0 485.4 115.5" style="enable-background:new 0 0 485.4 115.5;" xml:space="preserve">
<style type="text/css">
	.st0{fill:#FFFFFF;}
	.st1{fill:#4F2683;}
</style>
<g>
	<path class="st0" d="M105.8,104.2h6.2v-1.7h-6.2v-5.3h8.3v-1.8H104v16.8h10.6v-1.7h-8.8V104.2z M135.6,100c0-3-2.1-4.6-5.9-4.6H124
		v16.8h1.9v-7.4h3.9l4,7.4h2.1l-4.2-7.6C134.3,104,135.6,102.5,135.6,100z M129.6,103.1h-3.7v-6h3.7c2.9,0,4.1,0.9,4.1,2.9
		C133.7,102.2,132.5,103.1,129.6,103.1z M151,102.8c-3.5-1.1-4.5-1.7-4.5-3.5c0-1.5,1.4-2.6,3.4-2.6c2.1,0,3.5,0.9,4.2,2.9l0.1,0.1
		l1.6-0.8l0-0.1c-0.6-1.8-2.1-3.9-5.8-3.9c-3,0-5.3,1.9-5.3,4.4c0,2.7,1.8,3.8,5.5,4.9c3.6,1.2,4.2,2,4.2,3.6c0,1.8-1.5,2.8-3.9,2.8
		c-2.3,0-3.9-1.2-4.6-3.4l0-0.1l-1.7,0.6l0,0.1c0.8,2.8,3.1,4.5,6.2,4.5c3.5,0,5.9-1.9,5.9-4.7C156.3,105,154.4,103.9,151,102.8z
		 M32.2,106.2c0,2.9-1.5,4.5-4.3,4.5c-2.7,0-4.3-1.7-4.3-4.6V95.4h-1.9v11.1c0,3.7,2.4,6,6.2,6c3.8,0,6.2-2.4,6.2-6.1v-11h-1.9
		V106.2z M88,109.6l-4.9-14.2h-1.9l5.9,16.8l0,0.1h1.7l5.9-16.9h-1.9L88,109.6z M166,112.2h1.9V95.4H166V112.2z M55.9,108.7
		l-8.9-13.3l0-0.1h-1.9v16.8h1.8V98.4l9.2,13.7l0,0.1h1.6V95.4h-1.8V108.7z M69.7,112.2h1.9V95.4h-1.9V112.2z M366,95.4L366,95.4
		l-2.2-0.1l-6.2,16.7l-0.1,0.2h1.9l1.9-5.1h7.1l1.8,5l0,0.1h2L366,95.4z M361.9,105.4l2.9-8l2.9,8H361.9z M176.2,97.1h5.3v15h1.9
		v-15h5.3v-1.8h-12.6V97.1z M319.9,95.3h-2.1l-6.2,16.7l-0.1,0.2h1.9l1.9-5.1h7.1l1.8,5l0,0.1h2L319.9,95.3L319.9,95.3z
		 M315.9,105.4l2.9-8l2.9,8H315.9z M299.5,108.7l-8.9-13.3l0-0.1h-1.9v16.8h1.8V98.4l9.2,13.7l0,0.1h1.6V95.4h-1.8V108.7z
		 M340.9,95.4h-4.3v16.8h4.3c5.5,0,8.4-2.9,8.4-8.4C349.2,98.3,346.3,95.4,340.9,95.4z M341.1,110.5h-2.7V97.1h2.7
		c4.2,0,6.3,2.2,6.3,6.7C347.4,108.3,345.3,110.5,341.1,110.5z M272.1,95.3H270l-6.2,16.7l-0.1,0.2h1.9l1.9-5.1h7.1l1.8,5l0,0.1h2
		L272.1,95.3L272.1,95.3z M268.1,105.4l2.9-8l2.9,8H268.1z M253,106.7c-0.7,2.7-2.2,4.1-4.6,4.1c-3.2,0-5.2-2.7-5.2-7.1
		c0-4.2,2-6.9,5.1-6.9c2.3,0,3.6,1.1,4.3,3.9l0,0.1l1.8-0.4l0-0.1c-0.9-3.4-2.9-5.2-6.1-5.2c-4.2,0-7,3.5-7,8.7c0,5.3,2.8,8.8,7,8.8
		c3.3,0,5.5-1.9,6.4-5.4l0-0.1l-1.8-0.4L253,106.7z M202.2,103.1l-4.5-7.7l0-0.1h-2.1l5.7,9.5v7.3h1.9v-7.3l5.7-9.5h-2L202.2,103.1z
		 M224.6,102c-1.1,0-1.8,0.8-1.8,1.8c0,1.1,0.8,1.8,1.8,1.8c1.1,0,1.8-0.8,1.8-1.8C226.4,102.8,225.6,102,224.6,102z M182.4,40.5
		H180C178,33.7,173.5,28,165.4,28c-5.1,0-7.9,2.9-7.9,6.9c0,12.5,27.6,7.4,27.6,26.6c0,9.6-7.7,15.3-17.8,15.3
		c-6.3,0-9.9-2.2-12.7-2.2c-1.4,0-2.8,0.4-3.8,1.7l-3.3-17.9h2.4c2.1,9.3,7.9,15.7,17.6,15.7c5.2,0,9.4-2.7,9.4-8.5
		c0-12.8-27.2-9-27.2-26.7c0-8.7,6.8-13.5,15.6-13.5c5.1,0,7.2,1.4,10.6,1.4c1.5,0,2.7-0.6,3.7-1.6L182.4,40.5z M326.2,73.2V30.1h-8
		v-2.5c0,0,7.7,0,10.6,0c4.4,0,6.2-1.3,7.6-2.4v11h0.2c3.1-6.8,9.1-10.8,17.3-10.8c9.8,0,14.7,4.3,14.7,14.3v33.5h7.9v2.5h-25.9
		v-2.5h7.9V39.4c0-7.5-3.1-10.4-8.1-10.4c-9,0-13.8,9-13.8,18.3v25.9h7.9v2.5h-26.6v-2.5H326.2z M222.6,68.1l-0.8,1.6
		c-2.1,3.9-6,6.9-12.6,6.9c-10.4,0-11.6-6.1-11.6-12.5V30.1h-8.1h0l0,0v-2c9.7-0.9,15-6.4,16.4-17h2.1v16.5h12.3v2.5H208v34.5
		c0,5.9,1.6,8.3,5.4,8.3c3.7,0,5.8-2.9,7.1-5.8L222.6,68.1z M309.5,38.1c-3,0-5.4-2.2-5.4-5.4c0-1.7,0.8-3.2,2-4.2
		c-0.3-0.1-0.7-0.2-1.2-0.2c-7.1,0-12.7,12.3-12.7,23.6v21.2h8.3v2.5h-27v-2.5h8.6V30.1h-8.6v-2.5c0,0,8.1,0,11.2,0
		c4.3,0,5.9-1.3,7.6-2.6v13.5h0.1c2.1-5.8,6.1-13.1,14.2-13.1c5.4,0,8.3,3,8.3,6.9C315,35.4,312.7,38.1,309.5,38.1z M138.4,61.9
		c-2.8,6.6-7.5,11.9-16.1,11.9c-12.9,0-14.8-9.8-14.8-24.8v-0.8h33.1c0-13.4-7.4-22.5-21.2-22.5c-15.1,0-23.2,11.6-23.2,25.6
		c0,14.6,7.6,25.6,23.1,25.6c9.6,0,17.4-3.6,21.4-14.2L138.4,61.9z M107.7,42.8c0.5-7.4,3.3-14.6,11.1-14.6
		c8.3,0,10.2,6.5,10.3,13.4c0,0.6,0,2.9,0,3.5h-21.5C107.6,44.4,107.6,43.5,107.7,42.8z M267.4,61.9c-2.8,6.6-7.5,11.9-16.1,11.9
		c-12.9,0-14.8-9.8-14.8-24.8v-0.8h33.1c0-13.4-7.4-22.5-21.2-22.5c-15.1,0-23.2,11.6-23.2,25.6c0,14.6,7.6,25.6,23.1,25.6
		c9.6,0,17.4-3.6,21.4-14.2L267.4,61.9z M236.6,42.8c0.5-7.4,3.3-14.6,11.1-14.6c8.3,0,10.2,6.5,10.3,13.4c0,0.6,0,2.9,0,3.5h-21.5
		C236.5,44.4,236.5,43.5,236.6,42.8z M53,25c-4.4,12.6-18,51.8-18,51.8h-2L10.6,16L6.9,6.3H0V3.9h28.6v2.4h-9l2.7,8.1l15.6,43h0.2
		l12.9-37.4L46.1,6.3h-8.7V3.9h31.2v2.4H58.5l2.8,7.9L77,57.5h0.2l14.1-43l2.3-8.1h-9V3.9h20.3v2.4h-7.2l-3.2,9L74.4,76.7h-2.1
		L53,25z"/>
	<g>
		<path class="st0" d="M485.4,47.7l0-41.4C474.6,2.5,457.7,0,438.7,0c-18.6,0-35.3,2.4-46,6.3l0,41.4c0,6.3-0.1,18,5.5,31.1
			c7,16.3,20.4,28.5,39.8,36.2l1,0.4l1-0.4c19.4-7.7,32.8-19.9,39.8-36.2C485.5,65.7,485.4,53.6,485.4,47.7z"/>
		<path class="st1" d="M439,69.2l28.1,23c-7,8.1-16.4,14.6-28.1,19.3c-11.8-4.7-21.2-11.2-28.1-19.3L439,69.2z M481.6,34.4l0-25.5
			c-10.7-3.3-26.5-5.2-42.9-5.2c-16.3,0-31.5,1.9-42.3,5.2v25.5v0L439,69.2L481.6,34.4L481.6,34.4z M440.3,55.8l-2.6,0l-0.1-0.2
			c0,0-0.7-1.2-3.4-1.2h-8.4V40.8h0.6v13h7.8c2.6,0,3.6,1,3.9,1.4l2,0c0.3-0.4,1.2-1.4,3.8-1.4h7.8V40.8h0.6v13.6h-8.4
			c-2.8,0-3.4,1.2-3.4,1.2l-0.1,0.2L440.3,55.8z M438.7,53.5v0.7c-1.2-2.2-6.5-1.9-11.1-1.4V40.1c5.7-0.3,10.6-1.1,11.1,1.4v11.3
			c-1.5-1.7-5.8-1.6-10.4-1.1v0.4C432.8,51.6,437.6,51.5,438.7,53.5z M450.5,40.1v12.6c-4.6-0.5-9.9-0.8-11.1,1.4v-0.7
			c1.1-2,5.9-1.8,10.4-1.4v-0.4c-4.6-0.4-9-0.6-10.4,1.1V41.5C439.9,39,444.8,39.8,450.5,40.1z M475.7,34.4l-73.3,0l-4.7-4.9
			l9.3,3.1c-0.8-2.3-2.9-3.1-4.3-5.1c-0.8-1.2-1.1-2.3-1-3.6c0.3,0.4,0.7,1,1.4,1.5c0.7,0.5,1.6,0.8,2.8,1.1
			c2.2,0.5,3.3,1.2,4.3,2.1l-4.8-8.6l8.2,5.3c-0.3-2.4-2-3.7-2.9-6c-0.5-1.3-0.5-2.6-0.1-3.7c0.1,0.5,0.4,1.2,1,1.8
			c0.5,0.6,1.3,1.2,2.5,1.8c2.1,1,3,2,3.7,3.2l-2.5-9.6l6.6,7.2c0.3-2.4-1-4.1-1.3-6.5c-0.2-1.4,0.2-2.6,0.8-3.6
			c0,0.5,0.1,1.2,0.5,2c0.4,0.7,1,1.5,1.9,2.3c1.8,1.6,2.5,2.8,2.9,4.2l-0.1-10.1l4.6,8.5c0.9-2.2,0-4.2,0.3-6.5
			c0.2-1.4,0.8-2.5,1.7-3.3c-0.1,0.5-0.2,1.2,0,2.1c0.2,0.8,0.6,1.7,1.3,2.7c1.4,2,1.7,3.4,1.8,4.8l0,0l2.5-9.9l2.4,9.5
			c1.4-1.9,1.1-4.2,2-6.4c0.6-1.3,1.4-2.1,2.5-2.7c-0.2,0.4-0.5,1.1-0.5,2c0,0.8,0.1,1.8,0.6,3c0.8,2.3,0.8,3.6,0.5,5l4.8-8.8
			l-0.1,9.7c1.9-1.5,2-3.8,3.4-5.7c0.9-1.1,1.9-1.7,3.1-2c-0.3,0.4-0.8,1-1,1.8c-0.2,0.8-0.3,1.8-0.2,3c0.2,2.5-0.1,3.8-0.8,5.1l0,0
			l6.9-7.5l-2.5,9.4c2.1-1,2.8-3,4.7-4.4c1.1-0.9,2.3-1.3,3.5-1.3c-0.4,0.3-1,0.8-1.4,1.5c-0.4,0.7-0.7,1.6-0.9,2.9
			c-0.4,2.4-1.1,3.6-2,4.7l0,0l8.5-5.5l-4.7,8.4c2.3-0.3,3.4-2.2,5.6-3.1c1.3-0.6,2.6-0.7,3.7-0.4c-0.5,0.2-1.1,0.5-1.7,1.1
			c-0.6,0.6-1.1,1.4-1.6,2.6c-1,2.2-1.9,3.2-3.1,4l0.1,0.1l9.6-3.2L475.7,34.4z M429.2,48.2h0.2c0.8,0,0.8-0.1,0.8-0.6v-2.2
			c0-0.6-0.1-0.6-0.6-0.6h-0.5v-0.3c0.5,0,1.1,0,1.6,0c0.5,0,1.1,0,1.6,0v0.3h-0.5c-0.5,0-0.6,0-0.6,0.6v2.2c0,0.5,0.1,0.6,0.8,0.6
			h0.2v0.3c-0.5,0-1,0-1.6,0c-0.4,0-1,0-1.6,0V48.2z M434.6,45.8c-0.6-0.4-1-0.9-1-1.5c0-0.6,0.4-1.6,1.8-1.6c1.1,0,1.5,0.7,1.5,1.3
			c0,0.6-0.2,1-1.1,1.4c0.9,0.4,1.3,0.9,1.3,1.6c0,0.9-0.7,1.6-1.9,1.6c-1,0-1.7-0.7-1.7-1.4C433.5,46.4,434.1,46,434.6,45.8z
			 M436.1,47.4c0-0.5-0.2-0.8-1.3-1.4c-0.5,0.2-0.7,0.7-0.7,1.1c0,0.8,0.6,1.2,1,1.2C435.8,48.3,436.1,47.8,436.1,47.4z M435.6,45.3
			c0.4-0.3,0.7-0.6,0.7-1.2c0-0.6-0.4-1.1-0.9-1.1c-0.6,0-0.9,0.5-0.9,0.9C434.4,44.4,434.8,44.8,435.6,45.3z M440.9,44.6h3.5
			l0.1,0.1l-2.9,5.7l-0.4-0.1l2.3-4.7h-2.4L441,46h-0.3L440.9,44.6z M446.4,45.8c-0.6-0.4-1-0.9-1-1.5c0-0.6,0.4-1.6,1.8-1.6
			c1.1,0,1.5,0.7,1.5,1.3c0,0.6-0.2,1-1.1,1.4c0.9,0.4,1.3,0.9,1.3,1.6c0,0.9-0.7,1.6-1.9,1.6c-1,0-1.7-0.7-1.7-1.4
			C445.3,46.4,445.9,46,446.4,45.8z M447.9,47.4c0-0.5-0.2-0.8-1.3-1.4c-0.5,0.2-0.7,0.7-0.7,1.1c0,0.8,0.6,1.2,1,1.2
			C447.6,48.3,447.9,47.8,447.9,47.4z M447.4,45.3c0.4-0.3,0.7-0.6,0.7-1.2c0-0.6-0.4-1.1-0.9-1.1c-0.6,0-0.9,0.5-0.9,0.9
			C446.2,44.4,446.6,44.8,447.4,45.3z M452.8,68.9c0-6.1,4.9-11,10.9-10.9c6,0,10.9,4.9,10.9,11c0,6.1-4.9,11-10.9,10.9
			C457.7,79.8,452.8,74.8,452.8,68.9z M468.7,61.4c0.1,0.1,0.1,0.2,0.1,0.3c0,0.3-0.2,0.5-0.5,0.5c-0.3,0-0.5-0.2-0.5-0.5
			c0-0.2,0.2-0.5,0.4-0.5l-0.6-0.9l-1,0.4c0.1,0.1,0.2,0.2,0.2,0.4c0,0.3-0.2,0.5-0.5,0.5c-0.3,0-0.5-0.2-0.5-0.5
			c0-0.2,0.1-0.4,0.3-0.5c-0.3-0.3-0.9-0.8-1.5-1c0.5,0.8,0.7,1.9,0.7,2.7c0.6,0,2.3,0.5,2.9,1c0.5-0.8,1.3-1.5,2.2-1.8
			C470.1,61.4,469.3,61.3,468.7,61.4z M465.6,63.6c-0.1,0-0.1,0-0.2,0c-0.1,0-0.1,0-0.1-0.1c0,0-0.1-0.1-0.2-0.1
			c-0.3,0-0.4,0.2-0.5,0.3c0,0.1,0,0.2,0.1,0.3c0.1,0.1,0.1,0.1,0.2,0.1c0.1,0,0.1,0,0.2,0l0,0c0.1-0.1,0.2-0.2,0.2-0.3
			c0,0,0.2-0.1,0.3-0.1C465.7,63.7,465.7,63.7,465.6,63.6C465.7,63.6,465.7,63.6,465.6,63.6z M462.7,63.7c-0.1,0.1-0.1,0.2,0,0.3
			c0,0,0,0.1,0,0.1c0,0.2,0,0.4,0,0.7c0,0.2,0.2,0.2,0.5,0.2c0,0.1,0,0.1,0,0.2c0,0,0,0,0,0c-0.2,0-0.3,0.1-0.5,0.1
			c-0.5,0-0.7-0.3-0.7-0.7c0-0.1,0-0.2,0.1-0.2c0,0,0-0.1,0-0.1c-0.2-0.1-0.6,0.3-0.7,0.9c-0.1,0.5,0.2,0.8,0.6,0.8
			c0.2,0,0.5,0,0.9-0.1c0.6-0.2,1.2-0.3,1.6,0.1c-0.3-0.1-1.1,0-1.3,0c-0.3,0.1-0.5,0.7-0.1,0.8c0.3,0,1.3,0,1.4,0
			c-0.1,0.4-0.8,1-1.4,1.1c-0.4-0.2-1.5-0.1-2.1,0c-0.7-0.7-1.1-2.1-1.2-2.6c0-0.2,0-0.4,0.1-0.6c0.2-0.4,0.6-0.3,0.8-0.7
			c0.1-0.2,0.1-0.4,0.1-0.6c0-0.1,0.2-0.4,0-0.5c-0.1,0.1-0.2,0.2-0.4,0.1c-0.1,0-0.3-0.1-0.4,0c-0.2,0.1-0.3,0.4-0.4,0.6
			c-0.1,0.1-0.2,0.1-0.2-0.1c0-0.3,0.2-0.5,0.1-0.8c0-0.3-0.2-0.5-0.5-0.6c-0.1-0.1-0.3-0.2-0.4-0.2c-0.1,0-0.2,0-0.2,0.1
			c0.1,0,0.1,0.1,0.1,0.2c0,0.2-0.3,0.4-0.3,0.6c0,0.3,0.2,0.7,0.3,0.8c0,0.1-0.1,0.1-0.2,0.1c-0.2-0.1-0.5-0.3-0.7-0.3
			c-0.2,0-0.4,0.2-0.5,0.2c-0.1,0-0.4,0-0.4,0.2c0.2,0,0.3,0.2,0.4,0.3c0.1,0.1,0.1,0.2,0.2,0.3c0.2,0.1,0.6,0.1,0.9,0.1
			c0.1,0,0.3,0.1,0.3,0.4c0,0.2,0,0.4-0.1,0.6c-0.2,0.3-0.2,0.6-0.2,0.9c0.1-0.1,0.2-0.2,0.2-0.2c0.2,0,0.2,0.2,0.1,0.5
			c-0.1,0.3-0.2,0.6-0.1,0.9c0.1-0.1,0.1-0.2,0.3-0.2c0.2,0,0.3,0.2,0.1,0.5c-0.1,0.3-0.1,0.6,0,0.9c0-0.1,0.1-0.2,0.3-0.2
			c0.2,0,0.3,0.2,0.3,0.3c0.2,0.5,0.5,0.8,1.4,0.8c-0.3,0.5-2.6,0.2-3.6,0.1c-0.2,0-0.3-0.1-0.4-0.3c-0.2-0.4,0.2-0.7,0-1.1
			c-0.1-0.2-0.3-0.2-0.4-0.4c-0.1,0-0.3-0.3-0.4-0.2c0.1,0.1,0,0.3-0.1,0.4c-0.1,0.1-0.2,0.2-0.2,0.3c0,0.3,0.2,0.5,0.3,0.8
			c0.1,0.2,0,0.2-0.2,0.1c-0.2-0.2-0.6-0.6-0.9-0.6c-0.2,0-0.3,0.1-0.5,0.2c-0.1,0-0.5,0.1-0.4,0.3c0.2,0,0.3,0.1,0.3,0.3
			c0,0.1,0.1,0.3,0.2,0.4c0.3,0.2,0.8,0.1,1.1,0.2c0.1,0,0.1,0.1,0,0.2c-0.2,0.1-0.6,0.2-0.7,0.5c-0.1,0.2,0,0.4,0,0.6
			c0,0.1-0.1,0.4,0.1,0.4c0.1-0.1,0.2-0.2,0.5-0.2c0.1,0,0.3,0.1,0.4,0c0.2-0.1,0.3-0.4,0.4-0.6c0.1-0.1,0.2-0.2,0.3-0.2
			c0.1,0,0.2,0,0.3,0.1c0.2,0.2,0.2,0.6,0.7,0.7c0-0.1,0-0.1,0-0.2c0-0.1,0.1-0.2,0.2-0.2c0.1,0,0.2,0.1,0.3,0.3
			c0.2,0.3,0.3,0.3,0.6,0.4c0-0.1-0.1-0.1-0.1-0.2c0-0.1,0.1-0.2,0.2-0.2c0.1,0,0.2,0,0.3,0.2c0.2,0.3,0.3,0.4,0.6,0.5
			c-0.1-0.2,0-0.4,0.2-0.4c0.2,0,0.8,0.2,1.2,0.4c0,1.1,0.7,2.2,1.7,2.9c0-0.2,0.1-0.3,0.2-0.3c0.4,0,0.6,1,1.6,1.4
			c0-0.2,0.1-0.3,0.2-0.3c0.1,0,0.3,0.1,0.3,0.1c0.8,0.5,1.7,1,2.2,1.4c0.9-0.3,2.3-1.1,3.2-2.1c-0.6-0.2-2.1-1.4-2.7-1.9
			c-1-1-1.3-2.1-1.3-2.9c0-0.3,0-0.5,0.1-0.7c0.3,0.2,0.7,0.1,0.9-0.1c-0.5-0.4-0.4-1-0.2-1.3c0.2,0.2,0.7,0.1,0.9-0.1
			c-0.3-0.2-0.5-0.8-0.4-1.3c0.2,0.2,0.6,0.2,0.9,0c-0.4-0.3-0.5-0.8-0.4-1.4c0.2,0.2,0.5,0.3,0.7,0.2c-0.1-0.3-0.2-0.8-0.2-1.1
			c-0.1-0.5-0.2-1-0.3-1.3c-0.5-0.4-2-1-3-1c-0.1,0-0.3,0-0.4,0c-0.3,0.1-0.4,0.2-0.5,0.2c-0.1,0.2-0.5,0.3-0.8,0.4
			C463.5,63.4,462.9,63.6,462.7,63.7z M464.1,71.1L464.1,71.1c-0.1,0.6-0.5,1.6-0.7,2l0.4-0.3l0.3,0.3l0.3-0.3l0.4,0.3
			C464.6,72.7,464.2,71.7,464.1,71.1z M471.4,74.2c0.1-0.1,0.2-0.3,0.2-0.3c-0.4-0.6-0.7-1.3-0.7-2.1c0.1-0.8,0.5-1.1,0.9-1.1
			c0.3,0,0.6,0.3,0.6,0.6c0.3-0.2,0.4-0.5,0.4-0.8c0-0.2-0.1-0.6-0.5-0.6c0.7-0.6,0.6-1.9-0.1-2.3c0.1,0.9-0.6,1.5-1.2,2.1
			c-0.8,0.8-0.9,1.7-0.8,2.6c-0.5-0.9-0.7-1.8-0.6-2.6c0.1-1,0.6-1.9,1.3-1.9c0.2,0,0.5,0.1,0.6,0.3c0.3-0.6,0.1-1.2-0.4-1.2
			c0.5-1.3-0.3-2.6-1.1-2.9c0.2,0.4,0.3,0.8,0.2,1.3c-0.1,1.3-1.2,2.3-1.3,4.2c-0.1,2,1,3.8,2.2,5.2
			C471.2,74.5,471.3,74.4,471.4,74.2z M466.6,73.9L466.6,73.9c-0.1,0.6-0.5,1.6-0.7,2l0.4-0.3l0.3,0.3l0.3-0.3l0.4,0.3
			C467,75.5,466.7,74.6,466.6,73.9z M464.7,65.6c0.1-0.1,0.1-0.3,0.1-0.4c0-0.1,0-0.2-0.1-0.2c-0.1-0.1-0.3-0.1-0.5-0.1
			c-0.2,0-0.4,0-0.5,0.1c0,0.1,0,0.1-0.1,0.2C464,65.2,464.4,65.3,464.7,65.6z M414.3,79.9c6,0,10.9-4.9,10.9-11
			c0-6.1-4.9-11-10.9-11c-6,0-10.9,4.9-10.9,10.9C403.5,74.9,408.3,79.8,414.3,79.9z M421.4,64.4c0,0.3-0.1,0.9-0.3,1
			c-0.1,0-0.4,0.1-0.7,0.1c-0.1,0-0.2,0-0.3,0.2c-0.3,0.5-0.5,0.9-0.8,1.4c-0.1,0.6-0.1,1.3-0.1,2c0,0.3,0,0.6-0.2,0.9
			c-0.2,0.3-0.5,0.5-0.7,0.7c0,0-0.1,0.1,0.1,0c0.1,0,0.6-0.3,0.7-0.3c0.4-0.1,0.8-0.6,1.3,0c0.3,0.3,0.7,0.5,1.2,0.8
			c0.2,0.1,0.3,0.1,0.5,0.3c0.2,0.2,0.3,0.6,0.4,0.8c0.3,0.5,0.3,0.8,0.3,1c-0.2,0.1-0.9,0.1-1.2,0c-0.1-0.2-0.1-0.4-0.1-0.6
			c-0.1-0.3-0.2-0.4-0.3-0.5c-0.2-0.2-0.4-0.3-0.6-0.5c-0.5-0.3-0.6-0.4-1-0.2c-0.4,0.2-0.9,0.7-1.5,1c-0.5,0.2-1.8,0-2.1-0.3
			c0.1,0.4,0.9,0.8,1.4,1c-0.1,0.2-0.3,1.2-0.7,1.8c0-0.1-0.1-0.2-0.2-0.2c-0.4,0-0.3,0.8-0.6,1.2c0-0.1-0.1-0.3-0.3-0.3
			c-0.3,0-0.3,0.7-0.7,1.1c0-0.2-0.1-0.3-0.3-0.3c-0.2,0-0.3,0.1-0.4,0.3c-0.5,0.5-0.7,0.8-1.1,1.3c-1.5-0.1-3.7-1.1-4.5-2.1
			c1.4-1.5,2.7-3,3.3-3.5c0.3-0.9,1.2-2.8,1.5-3.7c0-0.1-0.1-0.2-0.1-0.2c-0.2,0.1-0.5,0.2-0.6,0.1c0.1-0.2,0.1-0.6,0-0.9
			c-0.2,0.1-0.4,0.1-0.5,0.1c0.1-0.3,0.1-0.6,0-0.9c0,0,0,0,0,0c-0.2,0.1-0.4,0.1-0.5,0.1c0.1-0.3,0.2-0.6,0.1-1.1c0,0,0-0.1,0-0.1
			c-0.3,0.1-1.2,0.3-1.4,0.2c-0.1-0.1,0.7-0.9,1.4-1.6c-0.6,0.3-1.5,0.6-2.8,0.8c-0.7,0.1-2.3,0.4-3.4,0.2c-0.2,0-0.1-0.3,0-0.3
			c0.6,0,1.3,0,1.9-0.2c0.2,0,0.4-0.2,0-0.2c-0.5-0.1-1.3-0.2-1.7-0.4c-0.1-0.1-0.1-0.2,0.1-0.2c0.5,0,1.1,0.1,1.6,0.2
			c0.3,0,0.4,0,0.2-0.2c-0.1-0.1-0.5-0.3-0.9-0.6c-0.1,0-0.1-0.2,0-0.2c0.3,0,1.5,0.7,2.2,0.9c0.2,0,0.3,0.1,0.5,0.1
			c0.2,0,0.2-0.1,0.2-0.2c0-0.2-0.8-0.5-1.2-0.8c-0.2-0.1,0-0.2,0.2-0.2c0.4,0.1,1.4,0.6,1.8,0.7c0.3,0,0.5-0.1,0.4-0.1
			c0-0.2-1.4-0.8-1.7-1.1c-0.1-0.1,0-0.2,0.1-0.1c0.7,0.1,2,1,2.5,0.9c0.1,0,0.1-0.1,0.1-0.1c0-0.3-1.1-0.8-1.4-1
			c-0.1-0.1,0-0.2,0.2-0.1c0.4,0.1,1,0.4,1.4,0.6c0.2,0.1,0.3,0.1,0.5,0.1c0.2,0,0.4-0.3,0.3-0.8c-0.1-0.5-0.6-0.7-0.9-0.8
			c-0.4-0.1-0.1-0.3,0.2-0.2c0.6,0.1,1.1,0.4,1.2,1c0,0.1,0,0.2,0,0.3c0,0.3,0.2,0.2,0.4-0.1c0.3-0.5,0.4-1,0.4-1.3
			c-0.1-0.6-0.9-0.8-0.9-0.9c0,0,0-0.1,0.1-0.1c0.3-0.1,1.2,0.3,1.3,1c0.1,0.4,0,0.6-0.1,0.9c0,0.1,0,0.1,0.2,0
			c0.4-0.4,0.7-1.1,0.6-1.8c-0.1-0.7-0.8-0.9-0.9-1.1c0,0,0.1-0.1,0.1-0.1c0.3-0.1,1.1,0.4,1.2,1.2c0.1,0.7-0.2,2.1-2.3,3.3
			c0.9-0.2,1.1-0.2,1.2-0.1c1-0.3,1.7-0.5,2-0.4c0.3,0.4-0.3,0.6-0.3,0.9c0,0.3,0.7-0.2,0.6,0.3c-0.2,0.4-0.5,0.4-0.8,0.5
			c-0.2,0.1-0.8,0.6-1.1,0.8c1,0.7,2.1,1.8,2.2,1.9c0.1,0.2,0.3,0.6,0.6,1.3c0,0,0,0,0,0c0.1-0.4,0.4-1.2,0.5-1.5
			c0.1-0.3,0.1-0.4,0.2-0.6c0.1-0.2,0.4-0.4,0.6-0.8c0.2-0.3,0.6-0.9,0.7-1.1c0.2-0.3,0.4-0.3,0.8-0.4
			C420.8,64.4,421.2,64.4,421.4,64.4z M413.3,64.4c0.1,0,0.1-0.1,0.2-0.2c0.2-0.1,0.4-0.1,0.6-0.2c0.1,0.1,0,0.3-0.1,0.4
			c-0.1,0.2-0.3,0.1-0.4,0C413.5,64.5,413.4,64.5,413.3,64.4C413.3,64.5,413.3,64.4,413.3,64.4z M450.1,92.7
			c0.1-0.1,0.3-0.4,0.2-0.4c-0.2-0.1-0.5,0.2-1,0.2c-0.5,0-1-0.3-1.2-0.9c-0.2-0.7,0.1-1.3,0.7-1.7c0.2-0.2,0.6-0.4,0.7-0.6
			c0-0.4,0.4-1,0.4-1.4c0-0.4,0.4-0.6,0.8-1.1c0.2-0.3,0.3-0.6,0.2-0.7c-0.4,0.3-1.7,1.3-2.4,1c-0.3-0.1-0.4-0.1-0.7,0.1
			c-0.2,0.2-0.6,0.3-1,0.2c-0.7-0.1-1.1-0.5-1.1-0.8c-0.4,0-0.8,0.7-1.1,1c-0.3,0.4-0.6,0.7-1,1c-0.3,0.2-0.8,0.8-1.2,0.5
			c-0.3-0.2-0.3-0.8-0.3-1.2c0-0.6,0.1-1.1,0.2-1.4c0.1-0.3,0.2-0.8,0.3-1.1c0.1-0.4,0.3-0.8,0.5-1.2c0.1-0.2,0.5-1,0.5-1.3
			c0-0.1-0.1-0.1-0.1-0.1c-0.2,0-0.5,0.2-0.8,0.4c-0.2,0.1-0.4,0.2-0.7,0.2c-0.3,0-0.6-0.1-0.8-0.5c-0.4-0.7-0.4-2.1-0.6-2.5
			c-0.4,0.2-0.7,0.1-0.9-0.2c-0.3-0.4-0.4-0.9-0.6-1.3c-0.1-0.2-0.2-0.7-0.3-1c-0.2,0.4-0.2,0.9-0.4,1.3c-0.1,0.2-0.1,0.5-0.2,0.8
			c-0.1,0.3-0.3,0.8-0.6,0.8c-0.2,0-0.3-0.2-0.3-0.3c-0.1,0-0.2,0.1-0.3,0.3c-0.1,0.3-0.1,0.6-0.2,0.9c-0.1,0.6-0.2,1.5-1,1.6
			c-0.3,0-0.7-0.2-1-0.3c-0.7-0.3-0.4,0.6-0.2,0.9c0.2,0.3,0.5,0.8,0.5,1.3c0.1,0.8,0.3,1.2,0.4,2c0.1,0.5,0.3,1.1,0.3,1.7
			c0,0.6-0.4,1-1.2,0.3c-0.2-0.2-0.7-0.8-1.1-0.9c-0.5-0.2-1.1-0.7-1.3-1c-0.1,0-0.4,0.2-0.5,0.3c-0.6,0.6-1.3,0.7-2.3,0.5
			c-0.5-0.1-0.7-0.2-1.2-0.5c-0.4-0.2-0.8-0.4-1-0.8c-0.1-0.1-0.1-0.3-0.3-0.3c-0.2,0-0.2,0.4-0.2,0.5c0,0.4,0.1,0.8,0.3,1.1
			c0.2,0.4,0.6,0.5,0.8,0.8c0.2,0.3,0.1,0.6-0.3,0.5c0,0.3,0.4,0.4,0.6,0.5c0.2,0.2,0.3,0.4,0.5,0.6c0.2,0.3,0.6,0.6,0.6,1
			c0,0.3-0.1,0.5-0.3,0.6c-0.3,0.2-0.7,0.1-1-0.1c-0.2,0.6,0.5,1,0.9,1.2c0.2,0.1,0.5,0.2,0.7,0.4c0.2,0.2,0.5,0.4,0.5,0.6
			c0.3,0.1,0.7,0,1.2,0.1c0.3,0,0.8,0.3,1.1,0.5c0.3,0.2,0.4,0.5,0.4,0.9c0,1.3-2.2,1.6-2.2,1.6c0.9,0.3,2.1,0.9,3,0.7
			c0.2,0,0.5-0.2,0.7-0.1c0.2,0.1,0.3,0.4,0.2,0.7c0.2,0.2,0.5,0.2,0.8,0.2c0.2,0,0.5,0,0.7-0.1c0.3-0.1,0.4-0.3,0.6-0.5
			c0.2-0.1,0.5-0.1,0.7-0.2c0.4-0.2,0.5-0.6,1-0.6l-0.2,7.5h1.4c0-0.8,0-1.5-0.1-2.3c0-1.3-0.1-2.6-0.1-3.9c0-0.4,0-0.8,0-1.3
			c0.4,0.1,0.6,0.6,0.9,0.8c0.4,0.2,1.4,0.8,1.8,0.4c-0.1-0.2-0.3-0.6,0-0.6c0.1,0,0.3,0.2,0.4,0.2c0.2,0.1,0.5,0.2,0.7,0.1
			c0.4,0,0.7-0.1,1.1,0c0.3,0,0.4,0.1,0.8,0c0.2-0.1,0.4-0.2,0.7-0.3c0.4-0.2,0.8-0.1,1.1-0.4c-0.3,0-0.9-0.2-1.1-0.3
			c-0.4-0.2-0.7-0.6-0.8-1c-0.2-0.4-0.3-0.9,0.3-1c0.3-0.1,0.3,0,0.4-0.2c0.2-0.2,0.5-0.5,0.8-0.6c0.3-0.1,1.4-0.1,1.5-0.5
			c0,0-0.1-0.2-0.1-0.2c0-0.1,0.1-0.1,0.2-0.2c0.2-0.1,0.4-0.2,0.7-0.3C449.4,93.1,449.9,92.9,450.1,92.7z"/>
	</g>
</g>
</svg>
